<svg xmlns="http://www.w3.org/2000/svg" viewBox="0 0 100 100">
  <!-- Background -->
  <rect width="100" height="100" rx="20" fill="#1a1a1a"/>
  
  <!-- Rust-style gear/cog -->
  <g transform="translate(50, 50)">
    <!-- Main gear circle -->
    <circle cx="0" cy="0" r="32" fill="#ff6b6b"/>
    
    <!-- Gear teeth (12 teeth around the circle) -->
    <g id="teeth">
      <rect x="-2.5" y="-34" width="5" height="6" fill="#ff6b6b"/>
      <rect x="-2.5" y="-34" width="5" height="6" fill="#ff6b6b" transform="rotate(30)"/>
      <rect x="-2.5" y="-34" width="5" height="6" fill="#ff6b6b" transform="rotate(60)"/>
      <rect x="-2.5" y="-34" width="5" height="6" fill="#ff6b6b" transform="rotate(90)"/>
      <rect x="-2.5" y="-34" width="5" height="6" fill="#ff6b6b" transform="rotate(120)"/>
      <rect x="-2.5" y="-34" width="5" height="6" fill="#ff6b6b" transform="rotate(150)"/>
      <rect x="-2.5" y="-34" width="5" height="6" fill="#ff6b6b" transform="rotate(180)"/>
      <rect x="-2.5" y="-34" width="5" height="6" fill="#ff6b6b" transform="rotate(210)"/>
      <rect x="-2.5" y="-34" width="5" height="6" fill="#ff6b6b" transform="rotate(240)"/>
      <rect x="-2.5" y="-34" width="5" height="6" fill="#ff6b6b" transform="rotate(270)"/>
      <rect x="-2.5" y="-34" width="5" height="6" fill="#ff6b6b" transform="rotate(300)"/>
      <rect x="-2.5" y="-34" width="5" height="6" fill="#ff6b6b" transform="rotate(330)"/>
    </g>
    
    <!-- Inner circle -->
    <circle cx="0" cy="0" r="23" fill="#1a1a1a"/>
    
    <!-- Center circle for checkmark -->
    <circle cx="0" cy="0" r="20" fill="#ff6b6b"/>
    
    <!-- Checkmark -->
    <path d="M -9 -1 L -4 5 L 10 -10" stroke="#fff" stroke-width="4.5" stroke-linecap="round" stroke-linejoin="round" fill="none"/>
  </g>
</svg>

